<svg width="50" height="50" viewBox="0 0 50 50" fill="none" xmlns="http://www.w3.org/2000/svg">
<g clip-path="url(#clip0_432_6645)">
<path fill-rule="evenodd" clip-rule="evenodd" d="M18.7501 12.5002C16.4489 12.5002 14.5834 14.3656 14.5834 16.6668V33.3335H10.4167V16.6668C10.4167 12.0645 14.1477 8.3335 18.7501 8.3335C23.3524 8.3335 27.0834 12.0645 27.0834 16.6668V31.2502C27.0834 33.5514 28.9488 35.4168 31.2501 35.4168C33.5513 35.4168 35.4167 33.5514 35.4167 31.2502V14.5835H39.5834V31.2502C39.5834 35.8525 35.8524 39.5835 31.2501 39.5835C26.6478 39.5835 22.9167 35.8525 22.9167 31.2502V16.6668C22.9167 14.3656 21.0513 12.5002 18.7501 12.5002Z" fill="#AA61F2"/>
<g filter="url(#filter0_d_432_6645)">
<path fill-rule="evenodd" clip-rule="evenodd" d="M37.5001 8.51221L45.6547 16.6668H29.3455L37.5001 8.51221ZM4.34546 31.2501H20.6547L12.5001 39.4047L4.34546 31.2501Z" fill="#FE4CB4"/>
</g>
</g>
<defs>
<filter id="filter0_d_432_6645" x="-5.65454" y="-1.48779" width="61.3093" height="50.8926" filterUnits="userSpaceOnUse" color-interpolation-filters="sRGB">
<feFlood flood-opacity="0" result="BackgroundImageFix"/>
<feColorMatrix in="SourceAlpha" type="matrix" values="0 0 0 0 0 0 0 0 0 0 0 0 0 0 0 0 0 0 127 0" result="hardAlpha"/>
<feOffset/>
<feGaussianBlur stdDeviation="5"/>
<feComposite in2="hardAlpha" operator="out"/>
<feColorMatrix type="matrix" values="0 0 0 0 0.996078 0 0 0 0 0.298039 0 0 0 0 0.705882 0 0 0 0.25 0"/>
<feBlend mode="normal" in2="BackgroundImageFix" result="effect1_dropShadow_432_6645"/>
<feBlend mode="normal" in="SourceGraphic" in2="effect1_dropShadow_432_6645" result="shape"/>
</filter>
<clipPath id="clip0_432_6645">
<rect width="50" height="50" fill="white"/>
</clipPath>
</defs>
</svg>
